<svg width="981" height="281" viewBox="0 0 981 281" fill="none" xmlns="http://www.w3.org/2000/svg">
<path d="M78.15 172H37.8C28.7 172 21.95 170.1 17.55 166.3C13.15 162.4 10.95 156.35 10.95 148.15V77.05C10.95 68.75 13.15 62.7 17.55 58.9C21.95 55 28.7 53.05 37.8 53.05H78.15V70H32.25C30.85 70 30.15 70.7 30.15 72.1V153.1C30.15 154.4 30.85 155.05 32.25 155.05H78.15V172ZM138.592 191.65V163.75C136.492 170.15 131.142 173.35 122.542 173.35H111.892C104.392 173.35 98.8918 171.9 95.3918 169C91.8918 166 90.1418 160.7 90.1418 153.1V80.2H108.292V156.55C108.292 157.95 108.992 158.65 110.392 158.65H138.592L138.442 80.2H156.592L156.742 186.1C156.742 194.4 154.692 200.3 150.592 203.8C146.592 207.3 140.092 209.05 131.092 209.05H93.1418V193.75H136.642C137.942 193.75 138.592 193.05 138.592 191.65ZM177.792 172V45.7H195.942V88.9C197.942 82.2 203.292 78.85 211.992 78.85H222.492C230.092 78.85 235.642 80.35 239.142 83.35C242.642 86.35 244.392 91.65 244.392 99.25V151.45C244.392 159.55 242.542 165.2 238.842 168.4C235.242 171.5 229.142 173 220.542 172.9L177.792 172ZM195.942 95.65V157.45L224.292 157.75C225.592 157.75 226.242 157.05 226.242 155.65V95.65C226.242 94.25 225.592 93.55 224.292 93.55H198.042C196.642 93.55 195.942 94.25 195.942 95.65ZM287.036 173.05C277.936 173.05 271.336 171.3 267.236 167.8C263.236 164.3 261.236 158.4 261.236 150.1V100.75C261.236 92.45 262.986 86.75 266.486 83.65C269.986 80.45 275.986 78.85 284.486 78.85H302.936C311.536 78.85 317.636 80.45 321.236 83.65C324.936 86.75 326.786 92.45 326.786 100.75V136.6H279.536V155.8C279.536 157.1 280.186 157.75 281.486 157.75H324.386V173.05H287.036ZM281.486 93.55C280.186 93.55 279.536 94.25 279.536 95.65V123.4H308.636V95.65C308.636 94.25 307.986 93.55 306.686 93.55H281.486ZM387.231 78.85V93.55H364.581C363.181 93.55 362.481 94.25 362.481 95.65L362.631 172H344.631L344.331 80.2H360.531L361.881 89.5C363.881 82.4 369.431 78.85 378.531 78.85H387.231ZM477.218 103.75C486.518 103.75 493.618 105.9 498.518 110.2C503.418 114.4 505.868 120.65 505.868 128.95V147.25C505.868 155.75 503.468 162.2 498.668 166.6C493.968 170.9 486.968 172.95 477.668 172.75L431.768 172V155.65H484.118C485.718 155.65 486.518 154.85 486.518 153.25V123.25C486.518 121.65 485.718 120.85 484.118 120.85H457.418C448.118 120.85 441.068 118.8 436.268 114.7C431.568 110.6 429.218 104.3 429.218 95.8V78.1C429.218 69.8 431.668 63.4 436.568 58.9C441.468 54.3 448.568 52.1 457.868 52.3L501.518 53.05V69.4H450.968C449.368 69.4 448.568 70.25 448.568 71.95V101.35C448.568 102.95 449.368 103.75 450.968 103.75H477.218ZM546.899 173.05C537.799 173.05 531.199 171.3 527.099 167.8C523.099 164.3 521.099 158.4 521.099 150.1V100.75C521.099 92.45 522.849 86.75 526.349 83.65C529.849 80.45 535.849 78.85 544.349 78.85H562.799C571.399 78.85 577.499 80.45 581.099 83.65C584.799 86.75 586.649 92.45 586.649 100.75V136.6H539.399V155.8C539.399 157.1 540.049 157.75 541.349 157.75H584.249V173.05H546.899ZM541.349 93.55C540.049 93.55 539.399 94.25 539.399 95.65V123.4H568.499V95.65C568.499 94.25 567.849 93.55 566.549 93.55H541.349ZM628.044 173.35C618.944 173.35 612.394 171.65 608.394 168.25C604.394 164.75 602.394 158.85 602.394 150.55V101.65C602.394 93.35 604.394 87.5 608.394 84.1C612.394 80.6 618.944 78.85 628.044 78.85H656.244V94H622.794C621.394 94 620.694 94.7 620.694 96.1V156.1C620.694 157.5 621.394 158.2 622.794 158.2H656.244V173.35H628.044ZM689.776 173.35C682.176 173.35 676.626 171.9 673.126 169C669.726 166 668.026 160.7 668.026 153.1V80.2H686.176V156.55C686.176 157.95 686.826 158.65 688.126 158.65H716.476L716.326 80.2H734.476L734.776 172H718.576L716.926 161.95C716.126 165.75 714.376 168.6 711.676 170.5C708.976 172.4 705.226 173.35 700.426 173.35H689.776ZM797.973 78.85V93.55H775.323C773.923 93.55 773.223 94.25 773.223 95.65L773.373 172H755.373L755.073 80.2H771.273L772.623 89.5C774.623 82.4 780.173 78.85 789.273 78.85H797.973ZM809.604 63.85V47.05H827.904V63.85H809.604ZM809.604 172V80.2H827.904V172H809.604ZM894.395 94.45H872.945V154.75C872.945 156.05 873.595 156.7 874.895 156.7H894.395V172H880.445C871.445 172 864.895 170.25 860.795 166.75C856.795 163.25 854.795 157.4 854.795 149.2V94.45H843.995V80.2H854.795V56.8H872.945V80.2H894.395V94.45ZM952.313 191.65V163.75C950.213 170.15 944.863 173.35 936.263 173.35H925.613C918.113 173.35 912.613 171.9 909.113 169C905.613 166 903.863 160.7 903.863 153.1V80.2H922.013V156.55C922.013 157.95 922.713 158.65 924.113 158.65H952.313L952.163 80.2H970.312L970.463 186.1C970.463 194.4 968.413 200.3 964.313 203.8C960.313 207.3 953.813 209.05 944.813 209.05H906.863V193.75H950.363C951.663 193.75 952.313 193.05 952.313 191.65Z" fill="white"/>
<path d="M295.056 208.856V201.688H302.864V208.856H295.056ZM295.056 255V215.832H302.864V255H295.056ZM331.426 215.256C334.626 215.256 336.972 215.896 338.466 217.176C339.959 218.456 340.706 220.717 340.706 223.96V255H332.962V222.424C332.962 221.827 332.684 221.528 332.13 221.528H320.93C320.332 221.528 320.034 221.827 320.034 222.424L320.098 255H312.418L312.29 215.832H319.202L319.778 219.8C320.631 216.771 322.999 215.256 326.882 215.256H331.426ZM367.671 221.912H358.519V247.64C358.519 248.195 358.796 248.472 359.351 248.472H367.671V255H361.719C357.879 255 355.084 254.253 353.335 252.76C351.628 251.267 350.775 248.771 350.775 245.272V221.912H346.167V215.832H350.775V205.848H358.519V215.832H367.671V221.912ZM382.719 255.448C378.836 255.448 376.02 254.701 374.271 253.208C372.564 251.715 371.711 249.197 371.711 245.656V224.6C371.711 221.059 372.457 218.627 373.951 217.304C375.444 215.939 378.004 215.256 381.631 215.256H389.503C393.172 215.256 395.775 215.939 397.311 217.304C398.889 218.627 399.679 221.059 399.679 224.6V239.896H379.519V248.088C379.519 248.643 379.796 248.92 380.351 248.92H398.655V255.448H382.719ZM380.351 221.528C379.796 221.528 379.519 221.827 379.519 222.424V234.264H391.935V222.424C391.935 221.827 391.657 221.528 391.103 221.528H380.351ZM425.469 215.256V221.528H415.805C415.207 221.528 414.909 221.827 414.909 222.424L414.973 255H407.293L407.165 215.832H414.077L414.653 219.8C415.506 216.771 417.874 215.256 421.757 215.256H425.469ZM448.863 215.256C452.063 215.256 454.41 215.896 455.903 217.176C457.396 218.456 458.143 220.717 458.143 223.96V255H450.399V222.424C450.399 221.827 450.122 221.528 449.567 221.528H438.367C437.77 221.528 437.471 221.827 437.471 222.424L437.535 255H429.855L429.727 215.832H436.639L437.215 219.8C438.068 216.771 440.436 215.256 444.319 215.256H448.863ZM476.469 255.448C472.586 255.448 469.77 254.701 468.021 253.208C466.314 251.715 465.461 249.197 465.461 245.656V224.6C465.461 221.059 466.207 218.627 467.701 217.304C469.194 215.939 471.754 215.256 475.381 215.256H483.253C486.922 215.256 489.525 215.939 491.061 217.304C492.639 218.627 493.429 221.059 493.429 224.6V239.896H473.269V248.088C473.269 248.643 473.546 248.92 474.101 248.92H492.405V255.448H476.469ZM474.101 221.528C473.546 221.528 473.269 221.827 473.269 222.424V234.264H485.685V222.424C485.685 221.827 485.407 221.528 484.853 221.528H474.101ZM519.859 221.912H510.707V247.64C510.707 248.195 510.984 248.472 511.539 248.472H519.859V255H513.907C510.067 255 507.272 254.253 505.523 252.76C503.816 251.267 502.963 248.771 502.963 245.272V221.912H498.355V215.832H502.963V205.848H510.707V215.832H519.859V221.912ZM538.514 255.192L538.45 248.92H555.73C556.327 248.92 556.626 248.643 556.626 248.088V239.064C556.626 238.467 556.327 238.168 555.73 238.168H547.986C544.317 238.168 541.693 237.507 540.114 236.184C538.578 234.819 537.81 232.429 537.81 229.016V224.792C537.81 221.251 538.621 218.776 540.242 217.368C541.906 215.917 544.551 215.213 548.178 215.256H562.258V221.784L546.514 221.72C545.959 221.72 545.682 222.019 545.682 222.616V231.192C545.682 231.789 545.959 232.088 546.514 232.088H554.194C557.863 232.088 560.466 232.749 562.002 234.072C563.538 235.352 564.306 237.72 564.306 241.176V246.552C564.306 249.795 563.559 252.056 562.066 253.336C560.615 254.573 558.269 255.192 555.026 255.192H538.514ZM577.709 255.576C574.509 255.576 572.162 254.957 570.669 253.72C569.218 252.44 568.493 250.179 568.493 246.936V241.176C568.493 237.763 569.261 235.395 570.797 234.072C572.376 232.707 574.978 232.024 578.605 232.024H588.653V223.128C588.653 222.573 588.376 222.296 587.821 222.296L570.861 222.36V215.768H586.093C589.762 215.725 592.408 216.429 594.029 217.88C595.65 219.288 596.461 221.763 596.461 225.304V255H589.485L588.845 250.584C588.504 252.248 587.757 253.507 586.605 254.36C585.496 255.171 583.896 255.576 581.805 255.576H577.709ZM588.653 249.304V237.656H577.005C576.45 237.656 576.173 237.933 576.173 238.488V248.408C576.173 249.005 576.45 249.304 577.005 249.304H588.653ZM615.037 207C614.482 207 614.205 207.277 614.205 207.832V215.832H623.933V221.912H614.205V255H606.461V221.912H601.917V215.832H606.461V210.008C606.461 206.467 607.272 203.992 608.893 202.584C610.514 201.133 613.138 200.429 616.765 200.472H625.341V207H615.037ZM638.781 255.448C634.898 255.448 632.082 254.701 630.333 253.208C628.626 251.715 627.773 249.197 627.773 245.656V224.6C627.773 221.059 628.52 218.627 630.013 217.304C631.506 215.939 634.066 215.256 637.693 215.256H645.565C649.234 215.256 651.837 215.939 653.373 217.304C654.952 218.627 655.741 221.059 655.741 224.6V239.896H635.581V248.088C635.581 248.643 635.858 248.92 636.413 248.92H654.717V255.448H638.781ZM636.413 221.528C635.858 221.528 635.581 221.827 635.581 222.424V234.264H647.997V222.424C647.997 221.827 647.72 221.528 647.165 221.528H636.413ZM682.171 221.912H673.019V247.64C673.019 248.195 673.296 248.472 673.851 248.472H682.171V255H676.219C672.379 255 669.584 254.253 667.835 252.76C666.128 251.267 665.275 248.771 665.275 245.272V221.912H660.667V215.832H665.275V205.848H673.019V215.832H682.171V221.912ZM706.883 263.384V251.48C705.987 254.211 703.704 255.576 700.035 255.576H695.491C692.291 255.576 689.944 254.957 688.451 253.72C686.957 252.44 686.211 250.179 686.211 246.936V215.832H693.955V248.408C693.955 249.005 694.253 249.304 694.851 249.304H706.883L706.819 215.832H714.562L714.627 261.016C714.627 264.557 713.752 267.075 712.003 268.568C710.296 270.061 707.523 270.808 703.683 270.808H687.491V264.28H706.051C706.605 264.28 706.883 263.981 706.883 263.384Z" fill="white" fill-opacity="0.47"/>
</svg>
